<svg xmlns="http://www.w3.org/2000/svg" aria-hidden="true" role="img" height="389" width="379"
     style="width: 379.687px; height: 389px; position: absolute; top: 50%; left: 50%; transform: translate(-50%, -50%) scale(1); z-index: 0; cursor: pointer; overflow: visible;">
    <g
            transform="matrix(3.5995068253832017,0,0,3.5995068253832017,-0.13503947932111404,14.10319869173924)"
            fill="#f8fafa">
        <path xmlns="http://www.w3.org/2000/svg"
              d="M104.6 41.3a52.2 52.2 0 0 0-3.5-11.2A51.1 51.1 0 0 0 44.3 1a49.6 49.6 0 0 0-5.7 1.5 49.1 49.1 0 0 0-7.9 2.7A51.6 51.6 0 0 0 6.3 77a53.7 53.7 0 0 0 4.1 6.4 57 57 0 0 0 5 5.7 51.7 51.7 0 0 0 55.3 11.5l3.3-1.4 3-1.5a50.9 50.9 0 0 0 5.8-3.8l2.7-2.1 1.2-1.1 1.1-.9 2-1.8.7-.6.6-.7 1.8-2a48.5 48.5 0 0 0 5.9-8.3 50.4 50.4 0 0 0 5.6-14.7 51.6 51.6 0 0 0 .2-20.4zM87.1 88.6l-1.2 1.1-1.2 1.1-2.6 2.1a49.5 49.5 0 0 1-5.7 3.6l-3 1.5-3.2 1.3-4.9 1.6h-.5a50.9 50.9 0 0 1-20.3.1 51.8 51.8 0 0 1-11.1-3.6A50.5 50.5 0 0 1 22.9 91a52 52 0 0 1-9.1-9.4 50.3 50.3 0 0 1-3.7-5.7c-.6-1-1.1-2-1.6-3.1s-1-2.1-1.3-3.2a50.6 50.6 0 0 1 8.6-50.8l.8-.8.5-.6.6-.6 1.2-1.1 2.4-2.1A50.5 50.5 0 0 1 62.4 3.2a48.5 48.5 0 0 1 14.7 5.2 47 47 0 0 1 8.3 5.8l2 1.8.7.6.6.7 1.8 2a49.7 49.7 0 0 1 11.3 22.9 50.8 50.8 0 0 1-.1 20.2 51.6 51.6 0 0 1-3.6 11 50.2 50.2 0 0 1-6.6 10.5l-2.1 2.4zm-44.9 13a50.1 50.1 0 0 1-13.7-5 51.8 51.8 0 0 1-6.2-4 55.2 55.2 0 0 1-5.5-4.8 49.9 49.9 0 0 1-11-53.2c.4-1.1.9-2.1 1.3-3.1l.6-1.3a50.2 50.2 0 0 0-3.4 11 51.3 51.3 0 0 0 2.4 28.5c.4 1.1.9 2.2 1.4 3.2s1 2.1 1.6 3.1a50.6 50.6 0 0 0 3.7 5.8 51.5 51.5 0 0 0 9.2 9.5 50.9 50.9 0 0 0 10.7 6.5 51 51 0 0 0 28.7 3.9 50.3 50.3 0 0 1-19.8-.1zm61.9-39.9a50.2 50.2 0 0 1-5.5 14.7 48.4 48.4 0 0 1-5.8 8.3l-1.8 2-.6.7-.7.6-1.9 1.7h.2l2.3-2.4 2.1-2.5A51.3 51.3 0 0 0 98.9 74a51.4 51.4 0 0 0 3.2-31.6 49.6 49.6 0 0 0-2.5-8.2 49.4 49.4 0 0 0-3.1-6.5 48.7 48.7 0 0 0-5.9-8.3l-1.8-2-.6-.7-.7-.6-2-1.8A49.9 49.9 0 0 0 77.3 8a49.3 49.3 0 0 0-6.5-3.2 49.8 49.8 0 0 0-8.2-2.6A52.2 52.2 0 0 0 49.9 1a50.8 50.8 0 0 1 22.7 3.2l3.2 1.3 3.1 1.6a50.1 50.1 0 0 1 5.7 3.7l2.6 2.1 1.2 1.1 1.2 1.1 2.3 2.3 2.1 2.4a50.4 50.4 0 0 1 6.5 10.5 51.6 51.6 0 0 1 3.6 11 51.1 51.1 0 0 1 0 20.3z"/>
    </g>
    <g
            transform="matrix(0.8247422680412371,0,0,0.8247422680412371,148.76288659793815,57)" fill="#ddeff2">
        <path xmlns="http://www.w3.org/2000/svg"
              d="M9.7,83.5c-4.5,0-8.2,3.7-8.2,8.2c0,4.5,3.7,8.2,8.2,8.2s8.2-3.7,8.2-8.2C18,87.2,14.3,83.5,9.7,83.5z M9.7,98.6  c-3.8,0-6.8-3.1-6.8-6.8s3.1-6.8,6.8-6.8s6.8,3.1,6.8,6.8S13.5,98.6,9.7,98.6z"/>
        <path xmlns="http://www.w3.org/2000/svg"
              d="M50,83.5c-4.5,0-8.2,3.7-8.2,8.2c0,4.5,3.7,8.2,8.2,8.2c4.5,0,8.2-3.7,8.2-8.2C58.2,87.2,54.5,83.5,50,83.5z M50,98.6  c-3.8,0-6.8-3.1-6.8-6.8s3.1-6.8,6.8-6.8s6.8,3.1,6.8,6.8S53.8,98.6,50,98.6z"/>
        <path xmlns="http://www.w3.org/2000/svg"
              d="M90.3,83.5c-4.5,0-8.2,3.7-8.2,8.2c0,4.5,3.7,8.2,8.2,8.2c4.5,0,8.2-3.7,8.2-8.2C98.5,87.2,94.8,83.5,90.3,83.5z M90.3,98.6  c-3.8,0-6.8-3.1-6.8-6.8s3.1-6.8,6.8-6.8s6.8,3.1,6.8,6.8S94,98.6,90.3,98.6z"/>
        <path xmlns="http://www.w3.org/2000/svg"
              d="M9.7,79.1c0.4,0,0.7-0.3,0.7-0.7v-6.8h38.9v6.8c0,0.4,0.3,0.7,0.7,0.7s0.7-0.3,0.7-0.7v-6.8h38.9v6.8c0,0.4,0.3,0.7,0.7,0.7  c0.4,0,0.7-0.3,0.7-0.7V71c0-0.4-0.3-0.7-0.7-0.7H9.7C9.3,70.3,9,70.6,9,71v7.5C9,78.8,9.3,79.1,9.7,79.1z"/>
        <path xmlns="http://www.w3.org/2000/svg"
              d="M50,24.8c6,0,10.5-8.7,10.5-14.3C60.5,4.7,55.8,0,50,0c-5.8,0-10.5,4.7-10.5,10.5C39.5,16.2,44,24.8,50,24.8z M50,1.4  c5,0,9.1,4.1,9.1,9.1c0,7.1-5.5,12.9-9.1,12.9s-9.1-5.8-9.1-12.9C40.9,5.5,45,1.4,50,1.4z"/>
        <path xmlns="http://www.w3.org/2000/svg"
              d="M24.8,61h50.4c0.4,0,0.7-0.3,0.7-0.7V41.8c0-8.5-6.9-15.5-15.5-15.5H39.6c-8.5,0-15.5,6.9-15.5,15.5v18.6  C24.1,60.7,24.4,61,24.8,61z M25.5,41.8c0-7.8,6.3-14.1,14.1-14.1h20.8c7.8,0,14.1,6.3,14.1,14.1v17.9h-9.8V46.8  c0-0.4-0.3-0.7-0.7-0.7c-0.4,0-0.7,0.3-0.7,0.7v12.8H36.7V46.8c0-0.4-0.3-0.7-0.7-0.7c-0.4,0-0.7,0.3-0.7,0.7v12.8h-9.8V41.8z"/>
        <path xmlns="http://www.w3.org/2000/svg"
              d="M50,37.8c0.4,0,0.7-0.3,0.7-0.7v-4c0-0.4-0.3-0.7-0.7-0.7s-0.7,0.3-0.7,0.7v4C49.3,37.5,49.6,37.8,50,37.8z"/>
        <path xmlns="http://www.w3.org/2000/svg"
              d="M50,54.3c0.4,0,0.7-0.3,0.7-0.7v-9.2c0-0.4-0.3-0.7-0.7-0.7s-0.7,0.3-0.7,0.7v9.2C49.3,54,49.6,54.3,50,54.3z"/>
    </g>
    <g
            transform="matrix(3.500175279811805,0,0,3.500175279811805,85.79979033183129,143.39866987624663)"
            fill="#ffffff">
        <path d="M1.2 30.240000000000002 l4.04 0 c0.08 5.16 0.48 6.16 1.92 6.16 c1.96 0 1.96 -1.64 1.96 -6 c0 -6.4 -7.92 -4.68 -7.92 -13.2 c0 -5 0 -9.6 6 -9.6 c4.44 0 5.64 2.52 5.92 8.56 l-4 0 c-0.16 -4.36 -0.64 -5.36 -1.92 -5.36 c-1.96 0 -1.96 2.16 -1.96 6.4 c0 6.2 7.96 4 7.96 13.2 c0 5.6 0 10 -6.04 10 c-4.64 0 -5.72 -2.76 -5.96 -10.16 z M16.5 23.16 c0 -11.16 0 -15.56 6 -15.56 c4.56 0 5.64 2.52 5.92 8.56 l-3.72 0 c-0.16 -4.36 -0.6 -5.36 -2.2 -5.36 c-2.24 0 -2.24 1.96 -2.24 12.36 c0 11.56 0 13.24 2.24 13.24 c2.12 0 2.24 -1.52 2.24 -10 l-2.64 0 l0 -3.2 l6.4 0 l0 1.56 c0 11.2 0 15.64 -6 15.64 s-6 -4.44 -6 -17.24 z M31.800000000000004 23.16 c0 -11.16 0 -15.56 5.6 -15.56 c4.12 0 5.24 2.52 5.52 8.56 l-3.72 0 c-0.16 -4.36 -0.6 -5.36 -1.8 -5.36 c-1.84 0 -1.84 1.96 -1.84 12.36 c0 11.56 0 13.24 1.84 13.24 c1.32 0 1.72 -1 1.8 -6.16 l3.76 0 c-0.24 7.4 -1.24 10.16 -5.56 10.16 c-5.6 0 -5.6 -4.44 -5.6 -17.24 z M45.86000000000001 23.16 c0 -11.16 0.24 -15.56 6.24 -15.56 s6.24 4.4 6.24 15.56 c0 12.8 -0.24 17.24 -6.24 17.24 s-6.24 -4.44 -6.24 -17.24 z M49.86000000000001 23.16 c0 11.56 0 13.24 2.24 13.24 s2.24 -1.68 2.24 -13.24 c0 -10.4 0 -12.36 -2.24 -12.36 s-2.24 1.96 -2.24 12.36 z"/>
    </g>
    <g
            transform="matrix(0.6787622986568614,0,0,0.6787622986568614,89.32123899597948,305.9555153145899)"
            fill="#f5f5f5">
        <path d="M14.78 9.6 l-1.46 0.52 c-0.18 -0.52 -0.42 -1.06 -1 -1.72 c-0.28 -0.3 -0.6 -0.6 -0.96 -0.84 c-0.72 -0.5 -1.84 -0.86 -3.06 -0.86 c-1.1 0 -2.08 0.26 -2.96 0.82 s-1.56 1.28 -2.04 2.2 c-0.48 0.9 -0.72 1.88 -0.72 2.96 c0 1.64 0.56 3.16 1.52 4.26 c0.98 1.1 2.5 1.78 4.22 1.78 c1.3 0 2.54 -0.42 3.48 -1.14 s1.58 -1.88 1.66 -3.22 l-6.08 0 l0 -1.42 l7.72 0 l0 0.56 c0 1.84 -0.66 3.5 -1.8 4.7 c-1.16 1.2 -2.94 1.94 -5 1.94 c-2.18 0 -4.08 -0.8 -5.32 -2.12 s-1.98 -3.2 -1.98 -5.26 c0 -1.38 0.32 -2.66 0.96 -3.8 s1.52 -2.04 2.64 -2.7 s2.38 -0.98 3.74 -0.98 c1.72 0 3.24 0.48 4.28 1.32 c1.06 0.82 1.76 1.82 2.16 3 z M19.426000000000002 20 l0 -14.58 l9.12 0 l0 1.42 l-7.58 0 l0 5.04 l6.94 0 l0 1.42 l-6.94 0 l0 5.28 l7.66 0 l0 1.42 l-9.2 0 z M37.272000000000006 20.14 c-1.38 0 -2.7 -0.52 -3.56 -1.28 c-0.9 -0.78 -1.48 -1.82 -1.6 -2.84 l1.44 -0.4 c0.16 0.86 0.6 1.58 1.32 2.18 c0.7 0.6 1.5 0.9 2.4 0.9 c0.84 0 1.62 -0.2 2.24 -0.64 c0.62 -0.42 1.02 -1.14 1.02 -2.02 c0 -1.02 -0.54 -1.68 -1.22 -2.08 c-0.48 -0.28 -0.9 -0.4 -1.38 -0.5 l-1.92 -0.38 c-0.4 -0.08 -0.82 -0.22 -1.28 -0.42 c-0.46 -0.22 -0.86 -0.48 -1.2 -0.82 c-0.68 -0.66 -1.02 -1.5 -1.02 -2.52 c0 -0.8 0.22 -1.52 0.66 -2.14 c0.44 -0.64 1 -1.1 1.7 -1.44 c0.7 -0.32 1.44 -0.48 2.26 -0.48 c3.14 0 4.52 1.94 4.82 3.5 l-1.4 0.44 c-0.24 -1.04 -1.18 -2.52 -3.44 -2.52 c-1.56 -0.04 -3.08 1.06 -3.06 2.58 c0 1.12 0.7 2.02 2.12 2.3 l1.84 0.36 c1.24 0.24 2.2 0.66 2.84 1.28 c0.44 0.4 0.76 0.86 0.96 1.34 c0.2 0.5 0.3 0.94 0.3 1.34 c0.02 2.56 -2.14 4.32 -4.84 4.26 z M51.397999999999996 6.859999999999999 l0 13.14 l-1.52 0 l0 -13.14 l-4.88 0 l0 -1.44 l11.28 0 l0 1.44 l-4.88 0 z M66.564 3.6999999999999993 c-0.48 0 -0.96 -0.22 -1.24 -0.44 c-0.3 -0.24 -0.76 -0.46 -1.2 -0.46 c-0.4 0 -0.64 0.3 -0.74 0.9 l-1.06 0 c0.02 -0.64 0.16 -1.14 0.46 -1.56 c0.28 -0.4 0.74 -0.6 1.34 -0.6 c0.8 -0.04 1.72 0.94 2.46 0.9 c0.42 0 0.68 -0.28 0.82 -0.86 l0.92 0 c-0.02 0.62 -0.16 1.14 -0.44 1.54 c-0.28 0.38 -0.72 0.58 -1.32 0.58 z M66.204 5.42 l6.3 14.58 l-1.62 0 l-1.6 -3.72 l-7.94 0 l-1.6 3.72 l-1.56 0 l6.28 -14.58 l1.74 0 z M68.704 14.879999999999999 l-3.4 -7.88 l-3.38 7.88 l6.78 0 z M89.66999999999999 12.68 c0 1.38 -0.32 2.64 -0.94 3.78 c-0.64 1.14 -1.52 2.04 -2.64 2.7 c-1.14 0.66 -2.38 1 -3.78 1 c-1.02 0 -1.98 -0.2 -2.9 -0.58 c-0.9 -0.38 -1.68 -0.9 -2.32 -1.58 c-0.64 -0.64 -1.14 -1.42 -1.52 -2.34 c-0.36 -0.92 -0.56 -1.88 -0.56 -2.9 c0 -1.38 0.32 -2.64 0.96 -3.78 c0.62 -1.14 1.5 -2.06 2.64 -2.72 c1.12 -0.66 2.38 -0.98 3.76 -0.98 c1.02 0 1.98 0.18 2.9 0.56 c0.9 0.4 1.68 0.92 2.32 1.56 c0.64 0.68 1.16 1.46 1.52 2.36 c0.38 0.92 0.56 1.88 0.56 2.92 z M88.08999999999999 12.76 c0 -1.64 -0.6 -3.16 -1.6 -4.26 s-2.5 -1.8 -4.18 -1.8 c-1.08 0 -2.06 0.28 -2.94 0.8 c-0.88 0.56 -1.56 1.28 -2.04 2.18 c-0.48 0.92 -0.72 1.92 -0.72 3 c0 1.62 0.6 3.16 1.6 4.24 c1 1.1 2.5 1.8 4.16 1.8 c1.08 0 2.06 -0.28 2.94 -0.82 c0.9 -0.52 1.58 -1.26 2.06 -2.16 s0.72 -1.9 0.72 -2.98 z M100.78199999999998 20 l0 -14.58 l4.34 0 c1.12 0 2.16 0.18 3.12 0.56 c0.96 0.36 1.78 0.88 2.44 1.52 c1.34 1.3 2.14 3.14 2.14 5.18 c0 1.06 -0.2 2.06 -0.6 2.98 s-0.96 1.68 -1.64 2.32 c-1.38 1.26 -3.34 2.02 -5.46 2.02 l-4.34 0 z M102.32199999999999 6.859999999999999 l0 11.7 l2.74 0 c1.22 0 2.3 -0.26 3.22 -0.76 c0.94 -0.5 1.68 -1.18 2.18 -2.06 c0.52 -0.88 0.78 -1.9 0.78 -3.02 c0 -1.66 -0.62 -3.14 -1.68 -4.2 c-1.04 -1.04 -2.66 -1.66 -4.5 -1.66 l-2.74 0 z M117.28799999999998 20 l0 -14.58 l9.12 0 l0 1.42 l-7.58 0 l0 5.04 l6.94 0 l0 1.42 l-6.94 0 l0 5.28 l7.66 0 l0 1.42 l-9.2 0 z M135.134 20.14 c-1.38 0 -2.7 -0.52 -3.56 -1.28 c-0.9 -0.78 -1.48 -1.82 -1.6 -2.84 l1.44 -0.4 c0.16 0.86 0.6 1.58 1.32 2.18 c0.7 0.6 1.5 0.9 2.4 0.9 c0.84 0 1.62 -0.2 2.24 -0.64 c0.62 -0.42 1.02 -1.14 1.02 -2.02 c0 -1.02 -0.54 -1.68 -1.22 -2.08 c-0.48 -0.28 -0.9 -0.4 -1.38 -0.5 l-1.92 -0.38 c-0.4 -0.08 -0.82 -0.22 -1.28 -0.42 c-0.46 -0.22 -0.86 -0.48 -1.2 -0.82 c-0.68 -0.66 -1.02 -1.5 -1.02 -2.52 c0 -0.8 0.22 -1.52 0.66 -2.14 c0.44 -0.64 1 -1.1 1.7 -1.44 c0.7 -0.32 1.44 -0.48 2.26 -0.48 c3.14 0 4.52 1.94 4.82 3.5 l-1.4 0.44 c-0.24 -1.04 -1.18 -2.52 -3.44 -2.52 c-1.56 -0.04 -3.08 1.06 -3.06 2.58 c0 1.12 0.7 2.02 2.12 2.3 l1.84 0.36 c1.24 0.24 2.2 0.66 2.84 1.28 c0.44 0.4 0.76 0.86 0.96 1.34 c0.2 0.5 0.3 0.94 0.3 1.34 c0.02 2.56 -2.14 4.32 -4.84 4.26 z M150.73999999999998 20.16 c-2 0 -3.86 -0.78 -5.16 -2.06 c-0.64 -0.64 -1.16 -1.42 -1.54 -2.34 c-0.38 -0.94 -0.58 -1.94 -0.58 -3 c0 -1.08 0.2 -2.1 0.6 -3.04 s0.92 -1.74 1.58 -2.38 c1.34 -1.3 3.2 -2.08 5.16 -2.08 c1.54 0 2.94 0.46 3.88 1.12 c0.48 0.32 0.9 0.7 1.28 1.12 c0.74 0.86 1.14 1.72 1.36 2.56 l-1.46 0.52 c-0.12 -0.48 -0.32 -1 -0.86 -1.76 c-0.28 -0.38 -0.58 -0.72 -0.94 -1.02 s-0.82 -0.56 -1.4 -0.76 c-0.58 -0.22 -1.2 -0.32 -1.9 -0.32 c-1.52 0 -2.98 0.62 -4 1.64 c-1.04 1.04 -1.7 2.58 -1.7 4.3 c0 1.14 0.24 2.18 0.74 3.1 c0.48 0.92 1.16 1.64 2.06 2.16 c0.86 0.52 1.84 0.78 2.92 0.78 c1.34 0 2.5 -0.46 3.2 -1.02 c0.36 -0.28 0.68 -0.6 0.96 -1 c0.28 -0.38 0.48 -0.72 0.62 -1 c0.12 -0.28 0.24 -0.58 0.34 -0.88 l1.46 0.52 c-0.22 0.78 -0.6 1.58 -1.34 2.48 c-0.36 0.44 -0.8 0.84 -1.26 1.18 c-0.96 0.68 -2.42 1.18 -4.02 1.18 z M175.18599999999998 12.68 c0 1.38 -0.32 2.64 -0.94 3.78 c-0.64 1.14 -1.52 2.04 -2.64 2.7 c-1.14 0.66 -2.38 1 -3.78 1 c-1.02 0 -1.98 -0.2 -2.9 -0.58 c-0.9 -0.38 -1.68 -0.9 -2.32 -1.58 c-0.64 -0.64 -1.14 -1.42 -1.52 -2.34 c-0.36 -0.92 -0.56 -1.88 -0.56 -2.9 c0 -1.38 0.32 -2.64 0.96 -3.78 c0.62 -1.14 1.5 -2.06 2.64 -2.72 c1.12 -0.66 2.38 -0.98 3.76 -0.98 c1.02 0 1.98 0.18 2.9 0.56 c0.9 0.4 1.68 0.92 2.32 1.56 c0.64 0.68 1.16 1.46 1.52 2.36 c0.38 0.92 0.56 1.88 0.56 2.92 z M173.606 12.76 c0 -1.64 -0.6 -3.16 -1.6 -4.26 s-2.5 -1.8 -4.18 -1.8 c-1.08 0 -2.06 0.28 -2.94 0.8 c-0.88 0.56 -1.56 1.28 -2.04 2.18 c-0.48 0.92 -0.72 1.92 -0.72 3 c0 1.62 0.6 3.16 1.6 4.24 c1 1.1 2.5 1.8 4.16 1.8 c1.08 0 2.06 -0.28 2.94 -0.82 c0.9 -0.52 1.58 -1.26 2.06 -2.16 s0.72 -1.9 0.72 -2.98 z M192.67199999999997 5.42 l2.2 0 l0 14.58 l-1.52 0 l0 -12.5 l0 0 l-5.42 12.5 l-1.38 0 l-5.38 -12.4 l0 0 l0 12.4 l-1.52 0 l0 -14.58 l2.18 0 l5.44 12.5 z M205.01799999999997 14.3 l-3.1 0 l0 5.7 l-1.54 0 l0 -14.58 l4.88 0 c3.56 -0.02 5.12 2.12 5.12 4.38 c0 1.26 -0.48 2.36 -1.34 3.18 c-0.88 0.82 -2.3 1.32 -4.02 1.32 z M205.13799999999998 6.859999999999999 l-3.22 0 l0 6.02 l3.14 0 c1.3 0 2.32 -0.38 2.9 -0.98 c0.58 -0.58 0.86 -1.3 0.86 -2.06 c0 -1.42 -0.82 -2.98 -3.68 -2.98 z M214.504 20 l0 -14.58 l1.54 0 l0 13.14 l6.92 0 l0 1.44 l-8.46 0 z M226.81 20 l0 -14.58 l1.54 0 l0 14.58 l-1.54 0 z M240.096 20.16 c-2 0 -3.86 -0.78 -5.16 -2.06 c-0.64 -0.64 -1.16 -1.42 -1.54 -2.34 c-0.38 -0.94 -0.58 -1.94 -0.58 -3 c0 -1.08 0.2 -2.1 0.6 -3.04 s0.92 -1.74 1.58 -2.38 c1.34 -1.3 3.2 -2.08 5.16 -2.08 c1.54 0 2.94 0.46 3.88 1.12 c0.48 0.32 0.9 0.7 1.28 1.12 c0.74 0.86 1.14 1.72 1.36 2.56 l-1.46 0.52 c-0.12 -0.48 -0.32 -1 -0.86 -1.76 c-0.28 -0.38 -0.58 -0.72 -0.94 -1.02 s-0.82 -0.56 -1.4 -0.76 c-0.58 -0.22 -1.2 -0.32 -1.9 -0.32 c-1.52 0 -2.98 0.62 -4 1.64 c-1.04 1.04 -1.7 2.58 -1.7 4.3 c0 1.14 0.24 2.18 0.74 3.1 c0.48 0.92 1.16 1.64 2.06 2.16 c0.86 0.52 1.84 0.78 2.92 0.78 c1.34 0 2.5 -0.46 3.2 -1.02 c0.36 -0.28 0.68 -0.6 0.96 -1 c0.28 -0.38 0.48 -0.72 0.62 -1 c0.12 -0.28 0.24 -0.58 0.34 -0.88 l1.46 0.52 c-0.22 0.78 -0.6 1.58 -1.34 2.48 c-0.36 0.44 -0.8 0.84 -1.26 1.18 c-0.96 0.68 -2.42 1.18 -4.02 1.18 z M261.642 20 l-1.6 -3.72 l-7.94 0 l-1.6 3.72 l-1.56 0 l6.28 -14.58 l1.74 0 l6.3 14.58 l-1.62 0 z M259.462 14.879999999999999 l-3.4 -7.88 l-3.38 7.88 l6.78 0 z M266.788 20 l0 -14.58 l4.34 0 c1.12 0 2.16 0.18 3.12 0.56 c0.96 0.36 1.78 0.88 2.44 1.52 c1.34 1.3 2.14 3.14 2.14 5.18 c0 1.06 -0.2 2.06 -0.6 2.98 s-0.96 1.68 -1.64 2.32 c-1.38 1.26 -3.34 2.02 -5.46 2.02 l-4.34 0 z M268.32800000000003 6.859999999999999 l0 11.7 l2.74 0 c1.22 0 2.3 -0.26 3.22 -0.76 c0.94 -0.5 1.68 -1.18 2.18 -2.06 c0.52 -0.88 0.78 -1.9 0.78 -3.02 c0 -1.66 -0.62 -3.14 -1.68 -4.2 c-1.04 -1.04 -2.66 -1.66 -4.5 -1.66 l-2.74 0 z M294.034 20 l-1.6 -3.72 l-7.94 0 l-1.6 3.72 l-1.56 0 l6.28 -14.58 l1.74 0 l6.3 14.58 l-1.62 0 z M291.854 14.879999999999999 l-3.4 -7.88 l-3.38 7.88 l6.78 0 z"/>
    </g>
</svg>